#!OML:ASF F:\VICON\USERDATA\INSTALL\rory3\rory3.ASF
:FULLY-SPECIFIED
:DEGREES
1308
root -16.4075 17.6537 12.6117 1.62188 -14.6852 0.342028
lowerback 11.5521 2.58477 -3.28272
upperback 1.88037 2.99091 -0.345463
thorax -4.65099 1.51908 1.02454
lowerneck -8.09338 -2.56539 -11.6296
upperneck 42.9441 -3.97058 6.79416
head 17.6373 -2.73779 4.61105
rclavicle -2.57675e-014 1.33186e-014
rhumerus -25.8806 -10.5355 -81.795
rradius 38.0005
rwrist 2.45675
rhand -17.5956 6.28435
rfingers 7.12502
rthumb 8.66063 -23.518
lclavicle -2.57675e-014 1.33186e-014
lhumerus -37.9942 -1.60046 81.3252
lradius 34.4434
lwrist -6.7592
lhand -19.8592 28.3376
lfingers 7.12502
lthumb 6.47574 58.2186
rfemur -23.2264 2.61761 9.58246
rtibia 27.4551
rfoot -24.1677 -9.54016
rtoes -8.03102
lfemur -14.5366 -8.25703 -22.9717
ltibia 28.8952
lfoot -12.3325 -20.2639
ltoes 17.4313
1309
root -16.3576 17.6661 12.6161 1.67542 -15.955 0.345198
lowerback 11.5684 2.53591 -3.3259
upperback 1.82278 2.91567 -0.397061
thorax -4.71653 1.48324 1.00464
lowerneck -8.16073 -2.52118 -11.6003
upperneck 43.0175 -3.93859 6.77685
head 17.6914 -2.73697 4.60319
rclavicle -6.49529e-014 2.44505e-014
rhumerus -26.0392 -10.7616 -81.9788
rradius 38.0497
rwrist 2.32832
rhand -17.7998 6.20347
rfingers 7.12502
rthumb 8.46352 -23.6069
lclavicle -6.49529e-014 2.44505e-014
lhumerus -38.0667 -1.89042 81.1536
lradius 34.7125
lwrist -6.30529
lhand -12.7735 33.4142
lfingers 7.12502
lthumb 13.3116 62.9691
rfemur -23.5006 1.58092 9.95471
rtibia 27.6656
rfoot -24.8879 -10.2793
rtoes -3.17778
lfemur -14.4006 -7.1601 -23.1589
ltibia 28.4679
lfoot -11.5372 -19.6976
ltoes 19.0655
1310
root -16.3085 17.6676 12.6234 1.65699 -17.1732 0.492049
lowerback 11.6152 2.48996 -3.46957
upperback 1.77851 2.82882 -0.479624
thorax -4.78772 1.44296 1.00973
lowerneck -8.26437 -2.4663 -11.6055
upperneck 43.0743 -3.89826 6.8181
head 17.7468 -2.72956 4.63076
rclavicle -3.16068e-014 5.1684e-015
rhumerus -26.2345 -10.9287 -82.1473
rradius 38.2123
rwrist 2.10925
rhand -17.5079 6.30437
rfingers 7.12502
rthumb 8.74522 -23.4945
lclavicle -3.16068e-014 5.1684e-015
lhumerus -38.1476 -2.26795 81.0655
lradius 34.8592
lwrist -6.18086
lhand -16.739 29.532
lfingers 7.12502
lthumb 9.48717 59.2984
rfemur -23.8311 0.301146 10.2324
rtibia 28.0317
rfoot -24.8013 -11.7292
rtoes -3.81448
lfemur -14.2353 -6.20096 -23.5043
ltibia 28.0495
lfoot -10.7872 -19.1615
ltoes 19.9631
1311
root -16.2563 17.6674 12.63 1.68565 -18.3235 0.694393
lowerback 11.5998 2.45734 -3.60386
upperback 1.73824 2.763 -0.572686
thorax -4.82022 1.41255 0.997928
lowerneck -8.30749 -2.44525 -11.6792
upperneck 43.0206 -3.90846 6.8991
head 17.731 -2.74402 4.67541
rclavicle -4.7112e-014 -1.70955e-014
rhumerus -26.3188 -10.9836 -82.2472
rradius 38.279
rwrist 1.88214
rhand -17.302 6.43773
rfingers 7.12502
rthumb 8.94389 -23.3527
lclavicle -4.7112e-014 -1.70955e-014
lhumerus -38.1181 -2.73664 81.1016
lradius 34.6884
lwrist -6.57642
lhand -19.0824 27.3161
lfingers 7.12502
lthumb 7.22564 57.1727
rfemur -24.2386 -1.1455 10.4902
rtibia 28.4324
rfoot -24.3619 -13.3553
rtoes -4.15764
lfemur -14.2287 -5.4556 -23.9158
ltibia 27.7165
lfoot -10.5469 -18.416
ltoes 19.2226
1312
root -16.205 17.6709 12.6335 1.83635 -19.5008 0.728356
lowerback 11.5412 2.3998 -3.63951
upperback 1.69209 2.68131 -0.613553
thorax -4.83208 1.37308 0.989495
lowerneck -8.51587 -2.44331 -11.7541
upperneck 43.0314 -3.92079 6.95729
head 17.7989 -2.76357 4.71364
rclavicle -4.39314e-014 2.76311e-014
rhumerus -26.3558 -10.8251 -82.4129
rradius 38.3118
rwrist 1.60858
rhand -17.3684 6.64125
rfingers 7.12502
rthumb 8.87988 -23.1519
lclavicle -4.39314e-014 2.76311e-014
lhumerus -37.999 -3.07845 81.0689
lradius 34.487
lwrist -6.99882
lhand -18.9046 27.5598
lfingers 7.12502
lthumb 7.39721 57.4104
rfemur -24.8011 -2.69097 11.0383
rtibia 28.9463
rfoot -23.8598 -14.2614
rtoes -2.99706
lfemur -14.3781 -4.69435 -24.1524
ltibia 27.407
lfoot -10.6409 -17.6083
ltoes 17.6799
1313
root -16.1551 17.6785 12.6432 1.90865 -20.7281 0.723383
lowerback 11.5269 2.29599 -3.69109
upperback 1.68245 2.53407 -0.667087
thorax -4.8272 1.30069 0.986419
lowerneck -8.93051 -2.39178 -11.6232
upperneck 43.1424 -3.82248 6.85014
head 17.9528 -2.72755 4.65887
rclavicle -1.76421e-014 2.78299e-015
rhumerus -26.444 -10.3766 -82.7871
rradius 38.4584
rwrist 1.26172
rhand -17.3547 6.68775
rfingers 7.12502
rthumb 8.89312 -23.1048
lclavicle -1.76421e-014 2.78299e-015
lhumerus -37.9424 -3.16753 80.8479
lradius 34.5229
lwrist -7.33028
lhand -18.1633 28.3096
lfingers 7.12502
lthumb 8.11276 58.1338
rfemur -25.2988 -4.32536 11.6859
rtibia 29.5758
rfoot -23.7421 -14.6033
rtoes -3.2294
lfemur -14.3568 -4.03424 -24.3529
ltibia 27.1024
lfoot -10.4801 -16.8612
ltoes 17.6496
1314
root -16.1034 17.6868 12.6522 1.91633 -21.9101 0.695663
lowerback 11.6166 2.21944 -3.66076
upperback 1.67606 2.42841 -0.714328
thorax -4.87536 1.24785 0.933643
lowerneck -9.16846 -2.34397 -11.5038
upperneck 43.1518 -3.74669 6.75223
head 18.0021 -2.69811 4.60013
rclavicle 1.76918e-014 -1.47101e-014
rhumerus -26.5845 -9.98185 -83.1025
rradius 38.5802
rwrist 1.01775
rhand -17.2228 6.54097
rfingers 7.12502
rthumb 9.02032 -23.2462
lclavicle 1.76918e-014 -1.47101e-014
lhumerus -37.8446 -3.25769 80.6713
lradius 34.501
lwrist -7.62737
lhand -18.3381 28.3775
lfingers 7.12502
lthumb 7.94404 58.2082
rfemur -25.6689 -5.86403 12.3325
rtibia 30.2231
rfoot -23.6028 -15.3998
rtoes -2.91075
lfemur -14.243 -3.62199 -24.5218
ltibia 26.8853
lfoot -10.2313 -16.0953
ltoes 17.3827
1315
root -16.0491 17.6937 12.6544 2.00591 -23.0468 0.624605
lowerback 11.7838 2.16935 -3.61435
upperback 1.5685 2.35795 -0.697584
thorax -5.07685 1.21574 0.928105
lowerneck -9.18001 -2.30475 -11.4591
upperneck 43.176 -3.68525 6.63344
head 18.0051 -2.69213 4.54233
rclavicle 2.09221e-014 -3.18055e-015
rhumerus -26.8552 -9.64389 -83.2688
rradius 38.7062
rwrist 0.908875
rhand -17.1834 6.33601
rfingers 7.12502
rthumb 9.05833 -23.4495
lclavicle 2.09221e-014 -3.18055e-015
lhumerus -37.8171 -3.30931 80.6111
lradius 34.3386
lwrist -7.78957
lhand -18.8368 27.9282
lfingers 7.12502
lthumb 7.46268 57.7766
rfemur -26.0725 -7.13255 12.9712
rtibia 30.8796
rfoot -23.3485 -16.7932
rtoes -0.846894
lfemur -14.2825 -3.25563 -24.6451
ltibia 26.7727
lfoot -10.0126 -15.298
ltoes 16.6518
1316
root -15.9935 17.7083 12.659 2.11217 -24.2164 0.529364
lowerback 11.8675 2.12061 -3.58635
upperback 1.50037 2.29447 -0.637187
thorax -5.19361 1.18645 0.981629
lowerneck -9.29637 -2.28694 -11.4104
upperneck 43.161 -3.5884 6.39049
head 18.005 -2.68273 4.42801
rclavicle 5.12864e-014 8.74653e-015
rhumerus -27.0733 -9.20014 -83.38
rradius 38.9332
rwrist 1.03678
rhand -17.0367 5.69509
rfingers 7.12502
rthumb 9.19996 -24.0842
lclavicle 5.12864e-014 8.74653e-015
lhumerus -37.7825 -3.19918 80.6294
lradius 34.1873
lwrist -7.78045
lhand -19.3718 27.4552
lfingers 7.12502
lthumb 6.94622 57.3212
rfemur -26.4743 -8.31286 13.6277
rtibia 31.6048
rfoot -23.5376 -16.1686
rtoes 2.12199
lfemur -14.2907 -2.97988 -24.7286
ltibia 26.7158
lfoot -9.85876 -14.2715
ltoes 16.6064
1317
root -15.9396 17.7211 12.6692 2.16796 -25.5284 0.397173
lowerback 11.864 2.11082 -3.53639
upperback 1.54875 2.29219 -0.564049
thorax -5.14166 1.18344 1.03179
lowerneck -9.48714 -2.2628 -11.3005
upperneck 43.0403 -3.43333 6.03638
head 17.9478 -2.64679 4.25382
rclavicle 2.15184e-014 -1.45113e-014
rhumerus -27.1591 -8.73887 -83.4834
rradius 39.2845
rwrist 1.61089
rhand -16.5815 4.46021
rfingers 7.12502
rthumb 9.63916 -25.2993
lclavicle 2.15184e-014 -1.45113e-014
lhumerus -37.5966 -2.86794 80.5942
lradius 34.072
lwrist -8.08139
lhand -19.6657 27.5713
lfingers 7.12502
lthumb 6.66257 57.4465
rfemur -26.773 -9.5063 14.3399
rtibia 32.3709
rfoot -23.4807 -15.9087
rtoes 3.34718
lfemur -14.2249 -2.63022 -24.7924
ltibia 26.7204
lfoot -10.2403 -13.1223
ltoes 14.9955
1318
root -15.8873 17.7243 12.6809 2.18525 -26.9336 0.332653
lowerback 11.9223 2.14817 -3.57649
upperback 1.55141 2.33682 -0.492993
thorax -5.17795 1.20673 1.1194
lowerneck -9.26795 -2.1991 -11.4222
upperneck 42.7308 -3.3217 5.97112
head 17.688 -2.62691 4.24334
rclavicle 3.33461e-014 -3.00165e-014
rhumerus -27.3819 -8.2056 -83.5493
rradius 39.4728
rwrist 1.77169
rhand -16.4167 4.28633
rfingers 7.12502
rthumb 9.79818 -25.4657
lclavicle 3.33461e-014 -3.00165e-014
lhumerus -37.559 -2.45379 80.4787
lradius 34.1874
lwrist -8.54241
lhand -19.9162 27.7215
lfingers 7.12502
lthumb 6.42069 57.6041
rfemur -27.1016 -10.5725 14.9591
rtibia 33.3192
rfoot -23.2909 -15.8114
rtoes 3.09966
lfemur -14.1588 -2.09194 -24.9685
ltibia 26.5648
lfoot -10.5508 -12.1272
ltoes 12.5126
1319
root -15.8356 17.7399 12.6951 2.12905 -28.346 0.35244
lowerback 11.9519 2.19342 -3.67973
upperback 1.56583 2.38201 -0.476141
thorax -5.18635 1.23049 1.1868
lowerneck -9.06298 -2.12101 -11.4178
upperneck 42.4712 -3.21977 5.89321
head 17.4615 -2.59433 4.2051
rclavicle -8.44835e-015 -3.37934e-015
rhumerus -27.5573 -7.63685 -83.6759
rradius 39.1983
rwrist 1.23869
rhand -16.8975 5.49329
rfingers 7.12502
rthumb 9.33428 -24.28
lclavicle -8.44835e-015 -3.37934e-015
lhumerus -37.3508 -2.25721 80.3607
lradius 34.0747
lwrist -8.63709
lhand -20.4708 27.6361
lfingers 7.12502
lthumb 5.88526 57.5344
rfemur -27.3543 -11.2983 15.391
rtibia 34.3861
rfoot -23.0767 -15.7457
rtoes 2.67704
lfemur -13.9292 -1.56624 -25.234
ltibia 26.3156
lfoot -10.7894 -10.9785
ltoes 9.15648
